<svg viewBox="0 0 75 89" xmlns="http://www.w3.org/2000/svg" fill-rule="evenodd" clip-rule="evenodd" stroke-linejoin="round" stroke-miterlimit="1.41"><g fill-rule="nonzero"><path d="M71.6 59.12c.1-1.47.5-2.11 1.02-2.93.6-.95 1.35-2.13 1.48-4.47 0-1.21-.65-2.27-1.28-3.3a6.02 6.02 0 0 1-.98-2.08c-.05-.48.22-1.24.48-1.98.4-1.16.87-2.48.52-3.82-.45-1.65-1.81-2.62-2.9-3.4a6.53 6.53 0 0 1-1.26-1.04c-.25-.33-.49-.77-.75-1.23-.53-.96-1.2-2.14-2.26-2.82a13.15 13.15 0 0 0-1.2-4.05c.9-1.86 1.34-3.83 1.34-6 0-6.65-4.54-10.96-6.97-13.27l-.1-.08-.8-.78a43.7 43.7 0 0 1-.78-.8l-.08-.1C54.76 4.54 50.46 0 43.8 0c-2.17 0-4.14.44-6 1.35a13.45 13.45 0 0 0-6-1.35c-6.66 0-10.96 4.54-13.27 6.97l-.09.1-.78.8c-.25.26-.52.51-.8.78l-.09.08C14.34 11.04 9.81 15.35 9.81 22c0 2.17.44 4.14 1.34 6a13.15 13.15 0 0 0-1.2 4.04c-1 .63-1.7 1.7-2.3 2.63-.32.5-.63.98-.93 1.33a6.8 6.8 0 0 1-1.42.99c-1.17.7-2.62 1.56-3.23 3.15-.5 1.33-.16 2.74.14 3.98.19.77.38 1.56.3 2.06-.12.62-.61 1.38-1.1 2.12C.73 49.37 0 50.48 0 51.76v.13c.18 2.03 1 3.05 1.66 3.86.55.67.9 1.11 1.03 2.23a3.66 3.66 0 0 1-.5 2.4 6.57 6.57 0 0 0-.8 4.07c.22 2 1.02 2.99 1.67 3.79.53.67.89 1.11 1.01 2.24.13 1.17-.1 1.68-.47 2.45a7.15 7.15 0 0 0-.84 3.87c.05.8.7 1.42 1.5 1.42h.08a1.5 1.5 0 0 0 1.42-1.58c-.06-1.15.2-1.68.54-2.42.44-.91.98-2.05.75-4.07-.22-2-1.01-3-1.66-3.8a3.65 3.65 0 0 1-1.01-2.23 3.66 3.66 0 0 1 .5-2.41 6.57 6.57 0 0 0 .8-4.07c-.23-1.98-1.04-2.98-1.69-3.78-.52-.65-.88-1.1-.99-2.15.04-.4.53-1.16.93-1.78.62-.94 1.31-2 1.53-3.23a8.08 8.08 0 0 0-.33-3.3c-.2-.8-.43-1.73-.25-2.2.23-.61 1.1-1.13 1.95-1.63a8.7 8.7 0 0 0 2.13-1.58c.4-.46.74-.97 1.07-1.48.94 5.24 4.63 8.75 6.75 10.76l.09.08c.27.27.55.52.8.78l.78.8.08.1c2.22 2.33 6.28 6.59 12.47 6.93-.16.52-.39.95-.63 1.43-.57 1.08-1.22 2.32-1.29 4.7a9.47 9.47 0 0 0 1.03 4.78c.45.98.8 1.75.75 3.44-.04 1.7-.44 2.45-.94 3.4-.57 1.1-1.21 2.33-1.28 4.72-.06 2.39.52 3.65 1.03 4.77.44.98.8 1.76.75 3.45a1.5 1.5 0 0 0 1.46 1.54h.04c.81 0 1.48-.64 1.5-1.46.07-2.39-.51-3.66-1.02-4.77a6.56 6.56 0 0 1-.76-3.45c.05-1.7.44-2.45.94-3.4.57-1.1 1.22-2.33 1.28-4.72.07-2.38-.51-3.65-1.02-4.77-.45-.98-.8-1.75-.75-3.44.04-1.7.44-2.45.94-3.4.4-.8.86-1.66 1.1-2.99 1.28-.2 2.5-.57 3.68-1.14 1.6.78 3.3 1.2 5.13 1.3l-.1.18a5.87 5.87 0 0 0-.78 3.85 5.87 5.87 0 0 0 1.74 3.52c.54.59.86.94.98 1.89.13.95-.1 1.37-.46 2.08-.43.83-1.03 1.96-.78 3.85a5.88 5.88 0 0 0 1.74 3.52c.53.59.86.94.98 1.89a1.5 1.5 0 1 0 2.97-.39 5.88 5.88 0 0 0-1.74-3.52c-.53-.59-.85-.94-.98-1.89-.12-.95.1-1.37.47-2.08.43-.83 1.02-1.96.78-3.85-.25-1.88-1.11-2.83-1.74-3.52-.54-.58-.86-.94-.98-1.89-.12-.94.1-1.37.46-2.07.24-.45.52-1 .7-1.72 5.3-.9 8.85-4.64 10.88-6.78l.08-.08.78-.81c.25-.26.53-.52.8-.78l.1-.08c2.08-1.98 5.7-5.43 6.7-10.55.22.4.46.8.74 1.18.5.68 1.22 1.18 1.9 1.68.78.55 1.6 1.13 1.76 1.74.11.43-.19 1.29-.46 2.04-.35 1-.75 2.13-.63 3.29.13 1.27.81 2.37 1.41 3.35.37.6.84 1.36.84 1.64a5.2 5.2 0 0 1-1.02 2.94c-.59.94-1.33 2.1-1.48 4.33a8.32 8.32 0 0 0 .87 4.5c.4.88.72 1.57.62 3.05-.1 1.48-.5 2.12-1.02 2.94-.6.94-1.33 2.11-1.48 4.34a8.36 8.36 0 0 0 .85 4.51c.38.88.7 1.58.64 3.06a1.5 1.5 0 0 0 1.44 1.55h.06c.8 0 1.47-.63 1.5-1.44a8.84 8.84 0 0 0-.9-4.38 5.5 5.5 0 0 1-.6-3.1c.1-1.47.51-2.12 1.02-2.94a8.32 8.32 0 0 0 1.48-4.34 8.32 8.32 0 0 0-.87-4.5c-.4-.87-.72-1.57-.62-3.04zm-11.13-30.1A9.53 9.53 0 0 1 61.81 34c0 4.93-3.45 8.2-5.73 10.37l-.09.08-.88.85-.85.88-.08.1C52 48.54 48.73 52 43.8 52a9.53 9.53 0 0 1-4.99-1.33l-1.01-.6-1.02.6A9.53 9.53 0 0 1 31.8 52c-4.94 0-8.2-3.45-10.37-5.73l-.09-.09-.85-.88-.88-.85-.09-.08c-2.28-2.17-5.72-5.44-5.72-10.37 0-1.83.43-3.46 1.33-4.98l.6-1.02-.6-1.02A9.53 9.53 0 0 1 13.81 22c0-4.94 3.44-8.2 5.72-10.37l.1-.08c.3-.29.6-.57.87-.85l.85-.88.09-.1C23.6 7.46 26.87 4 31.8 4c1.83 0 3.46.44 4.98 1.33l1.02.6 1.01-.6A9.53 9.53 0 0 1 43.81 4c4.93 0 8.2 3.45 10.37 5.73l.08.09.85.88.88.85.09.08c2.28 2.17 5.73 5.43 5.73 10.37 0 1.83-.44 3.46-1.34 4.98l-.6 1.02.6 1.02z"/><path d="M44.21 29a5.93 5.93 0 1 0 .01 11.86A5.93 5.93 0 0 0 44.21 29z"/><path d="M56.8 22c0-3.3-3.05-5.6-5.22-7.77C49.4 12.06 47.1 9 43.8 9c-3 0-3 2-6 2s-3-2-6-2c-3.3 0-5.6 3.06-7.77 5.23-2.18 2.18-5.23 4.47-5.23 7.77 0 3 2 3 2 6s-2 3-2 6c0 3.3 3.05 5.6 5.23 7.77C26.2 43.94 28.5 47 31.8 47c3 0 3-2 6-2s3 2 6 2c3.3 0 5.59-3.06 7.76-5.23 2.18-2.18 5.24-4.47 5.24-7.77 0-3-2-3-2-6s2-3 2-6zM45 17.33a3.17 3.17 0 1 1 0 6.34 3.17 3.17 0 0 1 0-6.34zm-16.23 23a4.5 4.5 0 1 1 0-9 4.5 4.5 0 0 1 0 9zm.76-12.66a6.5 6.5 0 1 1 .01-13.02 6.5 6.5 0 0 1-.01 13.02zM44.2 42.84a7.93 7.93 0 1 1 .02-15.86 7.93 7.93 0 0 1-.02 15.86z"/><path d="M29.52 16.67a4.5 4.5 0 1 0 0 9 4.5 4.5 0 0 0 0-9z"/></g></svg>