<svg xmlns="http://www.w3.org/2000/svg" xmlns:xlink="http://www.w3.org/1999/xlink" version="1.1" x="0px" y="0px" viewBox="0 0 100 125" enable-background="new 0 0 100 100" xml:space="preserve"><path d="M70.172,48.515c-0.467-1.853-1.051-3.653-1.73-5.378c0.307-0.135,0.58-0.336,0.793-0.607  c0.424-0.541,0.537-1.223,0.309-1.867c-0.836-2.354-1.854-4.589-3.014-6.678c0.002,0,0.002-0.001,0.004-0.001  c0.664-0.149,1.195-0.577,1.459-1.177c0.279-0.634,0.207-1.324-0.195-1.892c-1.23-1.737-2.594-3.302-4.053-4.683  c0.389-0.285,0.662-0.68,0.77-1.148c0.135-0.597-0.008-1.189-0.406-1.668c-2.172-2.615-4.768-4.645-7.588-6.019l0.244-0.94  c0.32-1.234,0.041-2.462-0.785-3.458c-0.729-0.877-1.75-1.375-2.893-1.471l0.016-0.132l0.83-1.897l2.383-1.587l8.986,1.3  l4.123-0.246l-0.119-1.996l-3.92,0.233l-9.543-1.381L52.334,8.16l-1.123,2.567l-0.115,0.762h-1.942l-0.061-0.486L47.894,8.16  l-3.508-2.338l-9.542,1.381l-3.92-0.233l-0.119,1.996l4.124,0.246l8.986-1.3l2.382,1.587l0.83,1.897l0.022,0.177  c-0.953,0.175-1.801,0.649-2.434,1.396c-0.826,0.976-1.121,2.188-0.829,3.414l0.229,0.96c-2.79,1.338-5.364,3.317-7.528,5.867  c-0.422,0.498-0.567,1.114-0.406,1.736c0.155,0.601,0.564,1.075,1.152,1.336c0.049,0.021,0.09,0.057,0.139,0.08  c-1.469,1.408-2.841,3.007-4.072,4.777c-0.368,0.529-0.453,1.15-0.238,1.754c0.17,0.475,0.509,0.846,0.957,1.085  c-1.158,2.077-2.176,4.302-3.014,6.646c-0.21,0.589-0.137,1.202,0.206,1.731c0.104,0.158,0.23,0.291,0.368,0.412  c-0.728,1.799-1.353,3.684-1.848,5.624c-0.144,0.562-0.037,1.136,0.3,1.614c0.33,0.467,0.808,0.759,1.382,0.846  c0.314,0.048,0.616,0.132,0.906,0.238c-0.142,0.2-0.261,0.418-0.323,0.669c-0.426,1.717-0.753,3.509-0.973,5.325  c-0.125,1.043,0.61,2.01,1.672,2.201c0.077,0.014,0.147,0.044,0.223,0.061c-0.048,0.12-0.095,0.242-0.121,0.373  c-0.378,1.98-0.575,4.031-0.586,6.095c-0.006,0.975,0.707,1.808,1.695,1.981c0.206,0.036,0.402,0.094,0.602,0.146  c-0.163,1.245-0.255,2.517-0.255,3.792c0,1.078,0.06,2.169,0.178,3.241c0.114,1.024,0.725,1.882,1.678,2.353  c0.591,0.293,1.234,0.373,1.862,0.285c-0.094,1.038-0.159,2.086-0.159,3.14c0,0.754,0.024,1.518,0.073,2.271  c0.073,1.123,0.751,2.074,1.815,2.542c0.421,0.186,0.862,0.28,1.31,0.28c0.106,0,0.212-0.014,0.317-0.025  c0.037,2.711,0.784,5.337,2.122,7.416c0.478,0.742,1.414,1.102,2.29,0.871c0.909-0.24,1.52-1.018,1.52-1.933V89.49  c0-1.104,0.978-2.002,2.18-2.002h2.311c1.201,0,2.18,0.898,2.18,2.002v2.685c0,0.915,0.611,1.692,1.521,1.933  c0.18,0.047,0.363,0.071,0.549,0.071c0.711,0,1.361-0.353,1.74-0.942c1.373-2.133,2.129-4.84,2.129-7.624  c0-0.158-0.012-0.315-0.016-0.474c0.609,0.071,1.234-0.012,1.801-0.293c1.01-0.5,1.641-1.45,1.688-2.541  c0.023-0.512,0.035-1.03,0.035-1.552c0-1.038-0.063-2.07-0.154-3.094c0.467-0.011,0.924-0.116,1.359-0.331  c0.951-0.471,1.563-1.328,1.678-2.354c0.117-1.071,0.178-2.162,0.178-3.24c0-1.106-0.076-2.213-0.201-3.305  c0.195-0.119,0.395-0.23,0.6-0.332c0.701-0.344,1.123-1.004,1.131-1.773l0.002-0.322c0-2.011-0.176-4.012-0.525-5.948  c-0.035-0.2-0.107-0.385-0.197-0.559c0.156-0.048,0.307-0.11,0.469-0.147c1.021-0.23,1.701-1.168,1.58-2.18  c-0.215-1.82-0.539-3.616-0.963-5.338c-0.066-0.266-0.197-0.496-0.355-0.705c0.191-0.076,0.389-0.143,0.592-0.191  c0.543-0.132,0.996-0.463,1.279-0.932C70.221,49.551,70.301,49.021,70.172,48.515z M67.588,41.303l-0.582,0.014  c-0.041,0.002-0.08,0.01-0.119,0.012c-0.475,0.017-0.943,0.059-1.406,0.135c-0.049,0.008-0.098,0.019-0.146,0.027  c-0.479,0.084-0.951,0.196-1.414,0.343c-0.027,0.009-0.057,0.02-0.084,0.028c-0.479,0.156-0.949,0.34-1.408,0.561  c-0.012,0.006-0.023,0.014-0.037,0.02c-0.469,0.227-0.926,0.484-1.369,0.777c-0.002,0.001-0.004,0.002-0.006,0.004  c-0.035-0.013-0.072-0.022-0.105-0.034c-0.42-0.142-0.84-0.276-1.262-0.401c-0.039-0.011-0.078-0.021-0.117-0.031  c-3-0.874-6.104-1.324-9.25-1.342v-0.002l-0.078-0.002v0.002c-0.04,0-0.079-0.002-0.118-0.002c-4.017,0-7.954,0.702-11.798,2.076  c-0.375-0.295-0.771-0.564-1.182-0.806c-0.037-0.021-0.078-0.036-0.116-0.058c-1.192-0.682-2.514-1.141-3.897-1.33l-0.096-0.014  c0.796-2.228,1.753-4.348,2.85-6.316c0.023,0.02,0.047,0.038,0.069,0.059c0.223,0.196,0.431,0.406,0.604,0.637  c0.111,0.149,0.243,0.275,0.385,0.387c0.047,0.037,0.099,0.064,0.148,0.097c0.102,0.067,0.207,0.128,0.319,0.176  c0.063,0.026,0.127,0.048,0.192,0.068c0.111,0.035,0.224,0.062,0.342,0.078c0.068,0.011,0.136,0.02,0.206,0.023  c0.039,0.002,0.075,0.013,0.114,0.013c0.138,0,0.278-0.013,0.419-0.039c7.411-1.392,15.75-1.444,23.216-0.153  c0.131,0.022,0.262,0.034,0.389,0.034c0.039,0,0.076-0.012,0.115-0.014c0.066-0.003,0.129-0.012,0.193-0.021  c0.113-0.017,0.221-0.04,0.33-0.073c0.061-0.02,0.121-0.038,0.182-0.063c0.109-0.045,0.209-0.101,0.309-0.162  c0.049-0.029,0.098-0.054,0.145-0.088c0.139-0.102,0.268-0.219,0.379-0.354c0.143-0.175,0.307-0.335,0.477-0.487  c0.051-0.045,0.104-0.086,0.154-0.129c0.061-0.048,0.125-0.088,0.186-0.133C65.852,36.841,66.828,39.021,67.588,41.303z   M45.979,16.535l-0.147-0.616c-0.145-0.607-0.007-1.165,0.41-1.657c0.435-0.514,1.014-0.774,1.72-0.774h4.746  c0.715,0,1.299,0.266,1.732,0.788c0.418,0.501,0.547,1.066,0.389,1.678l-0.162,0.624c-0.135-0.05-0.273-0.091-0.41-0.138  c-0.045-0.016-0.092-0.031-0.139-0.047c-0.576-0.193-1.158-0.363-1.746-0.501c-0.061-0.015-0.123-0.026-0.186-0.04  c-0.596-0.134-1.195-0.247-1.798-0.323l-0.126-0.016l-0.126,0.016c-0.6,0.076-1.195,0.187-1.787,0.32  c-0.051,0.011-0.102,0.021-0.153,0.032c-0.588,0.137-1.171,0.305-1.748,0.498c-0.034,0.011-0.068,0.022-0.101,0.033  C46.224,16.455,46.1,16.491,45.979,16.535z M48.399,17.897c0.111-0.027,0.222-0.055,0.333-0.08c0.506-0.116,1.016-0.216,1.529-0.286  c0.521,0.07,1.038,0.172,1.551,0.291c0.117,0.027,0.234,0.057,0.354,0.086c0.49,0.124,0.98,0.263,1.461,0.43  c0.016,0.005,0.031,0.01,0.047,0.015c3.326,1.162,6.398,3.329,8.869,6.288c-0.203,0.104-0.395,0.224-0.586,0.346l-0.043-0.033  l-0.611,0.492c-0.029,0.023-0.053,0.051-0.082,0.074c-0.15,0.126-0.291,0.261-0.43,0.397c-0.076,0.074-0.156,0.144-0.229,0.222  c-0.203,0.219-0.395,0.447-0.566,0.689c-0.008,0.013-0.043,0.02-0.072,0.027c-0.025,0.003-0.055,0.007-0.102,0.003  c-0.725-0.217-1.459-0.406-2.201-0.571c-0.49-0.109-0.988-0.189-1.486-0.276c-0.248-0.043-0.494-0.099-0.744-0.136  c-0.541-0.081-1.088-0.135-1.633-0.189c-0.217-0.021-0.434-0.053-0.65-0.069c-0.516-0.041-1.035-0.058-1.557-0.074  c-0.258-0.009-0.516-0.025-0.776-0.028c-0.11,0-0.219-0.012-0.329-0.012c-0.484,0-0.965,0.026-1.447,0.047  c-0.145,0.006-0.291,0.006-0.436,0.014c-0.62,0.035-1.236,0.093-1.85,0.162c-0.127,0.014-0.256,0.021-0.383,0.037  c-0.619,0.077-1.232,0.178-1.843,0.289c-0.123,0.022-0.248,0.037-0.371,0.061c-0.726,0.142-1.447,0.306-2.158,0.496  c-0.127,0.033-0.254,0.051-0.379,0.051c-0.374,0.001-0.724-0.145-0.963-0.414c-0.219-0.245-0.464-0.471-0.721-0.684  c-0.044-0.037-0.08-0.082-0.125-0.118l-0.75-0.602l-0.061,0.07c-0.271-0.153-0.55-0.294-0.846-0.405  C40.958,21.151,44.554,18.859,48.399,17.897z M39.072,27.588c0.014-0.007,0.028-0.014,0.041-0.02  c0.002,0.002,0.006,0.004,0.008,0.007c0.812,0.911,2.13,1.292,3.353,0.964c2.71-0.727,5.564-1.068,8.41-1.028  c2.846,0.04,5.686,0.462,8.364,1.265c0.209,0.062,0.424,0.094,0.641,0.094c0.227,0,0.443-0.047,0.654-0.113  c0.025-0.009,0.051-0.02,0.076-0.029c0.17-0.061,0.33-0.141,0.477-0.242c0.033-0.021,0.066-0.041,0.098-0.064  c0.164-0.125,0.314-0.265,0.434-0.434c0.006-0.007,0.01-0.012,0.016-0.018c0.125-0.174,0.264-0.34,0.412-0.497  c0.016-0.016,0.033-0.029,0.047-0.045c0.004,0.001,0.008,0.001,0.012,0.003c1.463,1.347,2.82,2.904,3.982,4.602  c-0.201,0.045-0.389,0.119-0.584,0.182l-0.043-0.072l-0.822,0.386c-0.213,0.101-0.418,0.213-0.619,0.334  c-0.006,0.003-0.012,0.006-0.016,0.009c-0.281,0.172-0.543,0.368-0.795,0.576c-0.063,0.053-0.123,0.105-0.184,0.16  c-0.242,0.218-0.475,0.446-0.68,0.696c-0.008,0.009-0.041,0.036-0.15,0.035c-3.703-0.64-7.58-0.965-11.525-0.965  c-2.131,0-4.241,0.095-6.314,0.282c-2.079,0.188-4.127,0.471-6.138,0.846c-0.028,0-0.079-0.006-0.105-0.041  c-0.167-0.223-0.356-0.432-0.555-0.634c-0.056-0.057-0.114-0.109-0.172-0.163c-0.185-0.174-0.379-0.338-0.585-0.49  c-0.016-0.012-0.03-0.024-0.045-0.035c-0.246-0.18-0.5-0.348-0.77-0.493l-0.844-0.454l-0.065,0.11  c-0.014-0.005-0.027-0.013-0.042-0.017C36.26,30.532,37.615,28.953,39.072,27.588z M56.16,92.154  c-0.016,0.021-0.047,0.023-0.059,0.023l-0.07-0.003V89.49c0-2.207-1.875-4.002-4.18-4.002h-2.311c-2.305,0-4.18,1.795-4.18,4.002  l0.007,2.665l-0.136-0.002c-1.167-1.813-1.81-4.136-1.81-6.541c0-0.226,0.006-0.447,0.017-0.669  c0.081-0.051,0.159-0.104,0.241-0.153c0.108-0.065,0.217-0.128,0.327-0.19c0.221-0.125,0.445-0.245,0.674-0.357  c0.065-0.033,0.131-0.064,0.197-0.097c0.29-0.138,0.584-0.267,0.885-0.384c0.014-0.006,0.028-0.012,0.042-0.018  c1.338-0.52,2.773-0.844,4.243-0.959c0.02-0.001,0.039-0.004,0.059-0.006c0.371-0.027,0.744-0.041,1.118-0.041  c0.545,0,1.088,0.035,1.625,0.093c0.066,0.007,0.133,0.012,0.199,0.02c0.516,0.062,1.023,0.151,1.523,0.265  c0.076,0.018,0.152,0.035,0.229,0.053c0.496,0.121,0.986,0.266,1.463,0.436c0.064,0.023,0.129,0.049,0.193,0.074  c0.488,0.182,0.967,0.385,1.428,0.617c0.008,0.004,0.014,0.008,0.02,0.012c0.043,0.432,0.064,0.869,0.064,1.306  C57.971,88.017,57.328,90.34,56.16,92.154z M61.445,82.217c-0.02,0.465-0.324,0.711-0.578,0.837  c-0.363,0.181-0.754,0.171-1.104-0.017v-0.002l-0.439-0.242c-0.1-0.056-0.203-0.104-0.303-0.156  c-0.15-0.079-0.301-0.157-0.453-0.231c-0.162-0.079-0.326-0.153-0.49-0.227c-0.166-0.073-0.33-0.146-0.496-0.214  c-0.158-0.064-0.316-0.122-0.477-0.181c-0.178-0.065-0.357-0.133-0.539-0.192c-0.152-0.051-0.307-0.096-0.461-0.141  c-0.191-0.057-0.381-0.115-0.572-0.165c-0.156-0.04-0.313-0.073-0.471-0.109c-0.193-0.044-0.387-0.091-0.582-0.128  c-0.168-0.033-0.338-0.057-0.508-0.084c-0.188-0.029-0.373-0.063-0.563-0.088c-0.205-0.025-0.412-0.041-0.621-0.061  c-0.154-0.014-0.307-0.033-0.461-0.043c-0.367-0.022-0.734-0.035-1.102-0.035c-0.43,0-0.856,0.016-1.279,0.046  c-0.189,0.014-0.375,0.042-0.563,0.062c-0.23,0.023-0.463,0.042-0.691,0.075c-0.231,0.034-0.458,0.083-0.687,0.126  c-0.18,0.033-0.362,0.061-0.54,0.1c-0.238,0.053-0.472,0.121-0.707,0.185c-0.164,0.044-0.33,0.081-0.491,0.13  c-0.229,0.069-0.453,0.153-0.678,0.232c-0.162,0.057-0.327,0.107-0.486,0.17c-0.212,0.082-0.418,0.178-0.626,0.269  c-0.167,0.073-0.338,0.142-0.502,0.22c-0.189,0.092-0.373,0.195-0.559,0.293c-0.176,0.094-0.355,0.183-0.528,0.283  c-0.167,0.097-0.329,0.205-0.492,0.309c-0.162,0.103-0.329,0.197-0.487,0.306l-0.127,0.087c-0.35,0.241-0.777,0.281-1.176,0.106  c-0.268-0.118-0.594-0.36-0.625-0.842c-0.046-0.71-0.069-1.43-0.069-2.141c0-1.329,0.081-2.655,0.239-3.949  c0.045-0.021,0.09-0.044,0.136-0.065c0.174-0.078,0.352-0.148,0.528-0.223c0.245-0.103,0.489-0.204,0.738-0.299  c0.196-0.074,0.395-0.143,0.593-0.212c0.233-0.082,0.468-0.161,0.705-0.236c0.212-0.066,0.425-0.13,0.64-0.19  c0.23-0.065,0.461-0.128,0.694-0.187c0.221-0.056,0.442-0.11,0.665-0.16c0.234-0.053,0.471-0.101,0.707-0.146  c0.222-0.043,0.444-0.087,0.667-0.124c0.252-0.042,0.505-0.076,0.759-0.11c0.21-0.029,0.419-0.06,0.63-0.083  c0.294-0.032,0.59-0.055,0.885-0.077c0.174-0.014,0.348-0.031,0.522-0.041c0.473-0.025,0.948-0.041,1.425-0.041  c0.49,0,0.979,0.015,1.465,0.043c0.168,0.009,0.336,0.028,0.504,0.041c0.316,0.023,0.633,0.047,0.947,0.082  c0.199,0.023,0.396,0.056,0.596,0.083c0.279,0.038,0.559,0.075,0.836,0.122c0.211,0.036,0.42,0.082,0.629,0.123  c0.262,0.052,0.521,0.102,0.779,0.161c0.215,0.05,0.424,0.106,0.637,0.162c0.25,0.064,0.5,0.129,0.746,0.201  c0.213,0.062,0.42,0.132,0.629,0.199c0.242,0.078,0.484,0.156,0.723,0.241c0.207,0.074,0.41,0.154,0.613,0.234  c0.236,0.092,0.471,0.186,0.703,0.284c0.199,0.085,0.395,0.177,0.592,0.267c0.143,0.066,0.283,0.135,0.424,0.203  c0.139,1.214,0.209,2.455,0.209,3.696C61.479,81.245,61.467,81.732,61.445,82.217z M64.373,74.755  c-0.039,0.349-0.232,0.61-0.576,0.78c-0.359,0.179-0.744,0.174-1.102-0.012c-0.002,0-0.004-0.002-0.006-0.002l-0.035-0.02  c-0.191-0.099-0.391-0.185-0.586-0.279c-0.266-0.128-0.527-0.262-0.799-0.381c-0.18-0.079-0.365-0.146-0.545-0.221  c-0.301-0.124-0.6-0.252-0.906-0.365c-0.156-0.059-0.32-0.105-0.48-0.161c-0.334-0.116-0.668-0.234-1.01-0.337  c-0.143-0.043-0.291-0.077-0.438-0.118c-0.359-0.102-0.721-0.205-1.086-0.292c-0.154-0.036-0.313-0.063-0.467-0.096  c-0.361-0.08-0.723-0.16-1.09-0.225c-0.17-0.03-0.342-0.049-0.512-0.076c-0.355-0.055-0.711-0.113-1.07-0.155  c-0.25-0.029-0.502-0.044-0.752-0.065c-0.283-0.025-0.564-0.058-0.85-0.074c-0.537-0.031-1.077-0.047-1.618-0.047  c-0.526,0-1.051,0.016-1.574,0.046c-0.209,0.012-0.416,0.035-0.624,0.052c-0.311,0.024-0.622,0.046-0.93,0.08  c-0.253,0.029-0.503,0.07-0.755,0.105c-0.261,0.037-0.523,0.07-0.783,0.114c-0.263,0.045-0.522,0.101-0.783,0.153  c-0.246,0.049-0.492,0.096-0.736,0.152c-0.257,0.059-0.512,0.127-0.767,0.194c-0.244,0.063-0.489,0.126-0.73,0.196  c-0.246,0.072-0.487,0.152-0.729,0.23c-0.248,0.08-0.495,0.16-0.739,0.248c-0.23,0.082-0.457,0.17-0.684,0.259  c-0.25,0.099-0.5,0.197-0.746,0.302c-0.217,0.094-0.432,0.191-0.646,0.29c-0.141,0.065-0.287,0.124-0.426,0.191l-0.479,0.233  l-0.001,0.011c-0.039,0.02-0.079,0.036-0.118,0.056c-0.356,0.186-0.739,0.191-1.101,0.012c-0.343-0.17-0.537-0.432-0.575-0.779  c-0.11-1-0.167-2.016-0.167-3.021c0-1.012,0.056-2.023,0.166-3.018c0.033,0.02,0.069,0.036,0.102,0.056  c0.333,0.2,0.653,0.419,0.943,0.667c0.001,0.001,0.002,0.002,0.004,0.003c0.409,0.351,0.938,0.526,1.472,0.499  c0.178-0.009,0.356-0.04,0.531-0.096c3.336-1.053,6.909-1.586,10.618-1.586c4.272,0,8.493,0.738,12.208,2.135  c0.162,0.061,0.33,0.094,0.5,0.114c0.031,0.003,0.063,0.007,0.096,0.009c0.051,0.004,0.104,0.014,0.154,0.014  c0.1,0,0.193-0.018,0.289-0.031c0.027-0.004,0.055-0.004,0.08-0.009c0.344-0.062,0.662-0.204,0.932-0.422  c0.012-0.009,0.027-0.015,0.037-0.023c0.035,0.562,0.053,1.126,0.053,1.688C64.539,72.74,64.482,73.756,64.373,74.755z   M65.576,60.409c0.328,1.819,0.494,3.7,0.494,5.593l-0.012,0.209l-0.01-0.078l-1.355,0.993c-0.033,0.024-0.063,0.054-0.094,0.077  c-0.162,0.122-0.313,0.252-0.465,0.383c-0.092,0.08-0.188,0.154-0.275,0.236c-0.23,0.219-0.449,0.445-0.65,0.684  c-0.016,0.018-0.035,0.025-0.061,0.025l-0.047-0.01c-3.936-1.479-8.4-2.262-12.911-2.262c-3.914,0-7.689,0.564-11.318,1.665  c-0.297-0.255-0.614-0.487-0.944-0.702c-0.107-0.068-0.223-0.126-0.333-0.191c-0.191-0.113-0.378-0.233-0.579-0.333  c-0.112-0.056-0.208-0.107-0.29-0.151c-0.234-0.127-0.466-0.229-0.735-0.262c-0.539-0.193-1.094-0.358-1.679-0.459  c0.01-1.941,0.195-3.87,0.569-5.734l0.083,0.004c0.253,0.152,0.489,0.32,0.709,0.503c0.063,0.052,0.124,0.11,0.185,0.166  c0.219,0.2,0.428,0.409,0.602,0.64c0.512,0.678,1.412,0.975,2.241,0.736c3.659-1.038,7.523-1.564,11.487-1.564  c4.117,0,8.121,0.566,11.902,1.686c0.199,0.059,0.404,0.088,0.609,0.088c0.012,0,0.023-0.004,0.035-0.004c0,0,0,0,0.002,0  c0.203-0.004,0.4-0.045,0.59-0.105c0.031-0.01,0.061-0.021,0.09-0.033c0.158-0.059,0.307-0.134,0.445-0.228  c0.033-0.023,0.068-0.044,0.102-0.069c0.156-0.12,0.303-0.256,0.42-0.418v-0.001l0,0c0.18-0.251,0.393-0.484,0.627-0.702  c0.029-0.027,0.063-0.051,0.092-0.078c0.137-0.121,0.291-0.227,0.443-0.336L65.576,60.409z M64.432,58.713  c-0.057,0.035-0.119,0.059-0.174,0.099c-0.158,0.118-0.305,0.254-0.453,0.386c-0.066,0.057-0.137,0.108-0.199,0.168  c-0.227,0.217-0.445,0.451-0.656,0.713l-0.18,0.232l-0.105,0.026l-0.004,0.007c-3.967-1.174-8.162-1.768-12.471-1.768  c-4.148,0-8.197,0.552-12.033,1.641l-0.1-0.019l-0.081-0.104c-0.076-0.097-0.159-0.185-0.239-0.275  c-0.05-0.058-0.097-0.117-0.15-0.173c-0.011-0.012-0.02-0.024-0.031-0.036l-0.074-0.075c-0.042-0.043-0.092-0.078-0.135-0.12  c-0.135-0.13-0.274-0.255-0.42-0.375c-0.089-0.073-0.178-0.145-0.271-0.214c-0.126-0.094-0.258-0.182-0.392-0.27  c-0.086-0.056-0.164-0.12-0.253-0.174c-0.017-0.01-0.037-0.014-0.054-0.023c-0.848-0.498-1.815-0.855-2.849-1.035  c0.209-1.734,0.521-3.444,0.924-5.077l0.127,0.003c0.01,0.011,0.021,0.02,0.03,0.031c0.095,0.105,0.181,0.217,0.264,0.33  c0.026,0.037,0.056,0.07,0.082,0.107c0.104,0.152,0.198,0.31,0.279,0.473c0.083,0.166,0.191,0.311,0.313,0.444  c0.493,0.544,1.264,0.809,2.021,0.632c3.728-0.86,7.626-1.297,11.585-1.297c4.943,0,9.748,0.674,14.277,2.002  c0.168,0.049,0.34,0.067,0.51,0.072c0.029,0.002,0.057,0.014,0.086,0.014c0.033,0,0.063-0.014,0.094-0.015  c0.15-0.009,0.297-0.029,0.441-0.068c0.098-0.025,0.188-0.063,0.281-0.102c0.08-0.034,0.156-0.071,0.232-0.115  s0.154-0.086,0.225-0.14c0.121-0.093,0.23-0.201,0.328-0.318c0.037-0.045,0.07-0.091,0.104-0.14  c0.104-0.147,0.195-0.304,0.254-0.479c0.074-0.219,0.176-0.427,0.287-0.63c0.031-0.059,0.066-0.116,0.102-0.174  c0.109-0.176,0.23-0.348,0.367-0.509c0.033-0.038,0.066-0.075,0.1-0.112l0.068,0.051c0.404,1.642,0.715,3.355,0.885,5.088  C66.273,57.646,65.285,58.108,64.432,58.713z M64.916,50.946c-0.018,0.019-0.041,0.03-0.057,0.05  c-0.018,0.019-0.027,0.041-0.045,0.061c-0.211,0.244-0.395,0.508-0.563,0.781c-0.053,0.087-0.104,0.174-0.152,0.262  c-0.162,0.297-0.309,0.602-0.418,0.922c-0.002,0.004-0.004,0.008-0.006,0.013l-0.102,0.019c-4.713-1.381-9.705-2.082-14.84-2.082  c-1.028,0-2.051,0.028-3.071,0.084c-3.059,0.169-6.081,0.588-9.058,1.245c-0.121-0.243-0.261-0.476-0.412-0.698  c-0.044-0.064-0.096-0.124-0.143-0.188c-0.114-0.154-0.231-0.307-0.359-0.45c-0.018-0.021-0.032-0.044-0.05-0.063  c-0.018-0.02-0.042-0.031-0.061-0.051c-0.976-1.037-2.305-1.746-3.812-1.962c0.48-1.886,1.083-3.72,1.793-5.462  c0.072,0.016,0.146,0.025,0.217,0.043c0.126,0.031,0.25,0.069,0.374,0.106c0.229,0.067,0.454,0.145,0.675,0.23  c0.123,0.048,0.245,0.096,0.366,0.149c0.226,0.1,0.445,0.212,0.661,0.33c0.102,0.056,0.206,0.105,0.304,0.166  c0.308,0.185,0.607,0.384,0.89,0.606c0.132,0.104,0.277,0.185,0.425,0.254c0.024,0.011,0.048,0.022,0.073,0.032  c0.249,0.104,0.514,0.164,0.79,0.164c0.052,0,0.104-0.01,0.155-0.014c0.037-0.003,0.073-0.006,0.11-0.01  c0.161-0.021,0.32-0.053,0.475-0.111c0.425-0.156,0.854-0.305,1.285-0.443c4.745-1.521,9.83-1.895,14.742-1.119  c1.787,0.283,3.549,0.718,5.266,1.305c0.143,0.049,0.291,0.076,0.439,0.095c0.031,0.004,0.064,0.006,0.098,0.009  c0.051,0.003,0.102,0.012,0.152,0.012c0.041,0,0.078-0.016,0.119-0.018c0.123-0.008,0.244-0.027,0.365-0.057  c0.064-0.016,0.129-0.027,0.191-0.049c0.178-0.061,0.35-0.139,0.506-0.248c0.34-0.233,0.697-0.436,1.063-0.617  c0.123-0.061,0.252-0.109,0.377-0.164c0.25-0.109,0.502-0.213,0.76-0.298c0.152-0.051,0.307-0.093,0.463-0.136  c0.246-0.066,0.498-0.124,0.752-0.17c0.158-0.028,0.314-0.057,0.473-0.076c0.088-0.011,0.176-0.011,0.264-0.02  c0.732,1.791,1.348,3.678,1.807,5.611C66.908,49.303,65.768,50.004,64.916,50.946z"/><text x="0" y="115" fill="#000000" font-size="5px" font-weight="bold" font-family="'Helvetica Neue', Helvetica, Arial-Unicode, Arial, Sans-serif">Created by Nikita Kozin</text><text x="0" y="120" fill="#000000" font-size="5px" font-weight="bold" font-family="'Helvetica Neue', Helvetica, Arial-Unicode, Arial, Sans-serif">from the Noun Project</text></svg>