<svg xmlns="http://www.w3.org/2000/svg" xmlns:xlink="http://www.w3.org/1999/xlink" version="1.1" x="0px" y="0px" viewBox="0 0 100 125" enable-background="new 0 0 100 100" xml:space="preserve"><g><g><path fill="#000000" d="M90.9,85L80.4,65.7c-0.2-0.4-0.6-0.7-1.1-0.8c-0.5-0.1-1,0-1.3,0.3l-4.5,3.4l-4.6-9    c-0.3-0.5-0.7-0.8-1.3-0.9c-0.6-0.1-1.1,0.2-1.4,0.6l-5.6,7.2v-3.7c0-0.1,0-0.3,0-0.4v-6.3l13.6-7.9c0.5-0.3,0.8-0.8,0.8-1.4V20    c0-0.6-0.3-1.1-0.8-1.4L50.8,5.1c-0.5-0.3-1.1-0.3-1.6,0L25.9,18.5c-0.5,0.3-0.8,0.8-0.8,1.4v26.9c0,0.6,0.3,1.1,0.8,1.4l13.6,7.9    v10.2l-5.5-7c-0.3-0.4-0.9-0.7-1.4-0.6c-0.6,0.1-1,0.4-1.3,0.9l-4.6,9l-4.5-3.4c-0.4-0.3-0.9-0.4-1.3-0.3    c-0.5,0.1-0.9,0.4-1.1,0.8L9.1,85c-0.4,0.8-0.1,1.8,0.7,2.2c0.2,0.1,0.5,0.2,0.8,0.2c0.6,0,1.1-0.3,1.4-0.9l9.7-17.7l3.5,2.6    l-2.2,4.4c-0.4,0.8-0.1,1.8,0.7,2.2c0.2,0.1,0.5,0.2,0.7,0.2c0.6,0,1.2-0.3,1.5-0.9l2-3.9l11.6,8.8l-11.3-3.6    c-0.8-0.2-1.6,0.1-2,0.8l-7.3,14.2c-0.4,0.8-0.1,1.8,0.7,2.2c0.2,0.1,0.5,0.2,0.7,0.2c0.6,0,1.2-0.3,1.5-0.9l6.7-13L43.5,87    l5.7,3.1c0.2,0.1,0.5,0.2,0.8,0.2s0.5-0.1,0.8-0.2l5.9-3.2l15-4.7l6.6,13c0.3,0.6,0.9,0.9,1.5,0.9c0.3,0,0.5-0.1,0.7-0.2    c0.8-0.4,1.1-1.4,0.7-2.2l-7.3-14.2c-0.4-0.7-1.2-1.1-2-0.8l-11.1,3.5l11.4-8.6l2,3.9c0.3,0.6,0.9,0.9,1.5,0.9    c0.3,0,0.5-0.1,0.7-0.2c0.8-0.4,1.1-1.4,0.7-2.2L75,71.5l3.4-2.6L88,86.6c0.3,0.5,0.9,0.9,1.4,0.9c0.3,0,0.5-0.1,0.8-0.2    C91,86.8,91.3,85.8,90.9,85z M39.5,78.3l-10.3-7.7l3.7-7.3l6.5,8.3V78.3z M28.4,45.9v-25L50,8.4l21.6,12.5v25L50,58.4L28.4,45.9z     M57.2,82.9l-2,1.1c0,0,0,0,0,0L50,86.9l-5-2.8c0,0,0,0,0,0l-2.2-1.2v-3.3l6.4,3.5c0.2,0.1,0.5,0.2,0.8,0.2s0.5-0.1,0.8-0.2    l6.4-3.5V82.9z M57.2,75.8l-7.2,4l-7.2-4v-3.3l6.4,3.5c0.2,0.1,0.5,0.2,0.8,0.2s0.5-0.1,0.8-0.2l6.4-3.5V75.8z M57.2,68.7l-7.2,4    l-7.2-4v-3.3l6.4,3.5c0.2,0.1,0.5,0.2,0.8,0.2c0.3,0,0.5-0.1,0.8-0.2l6.4-3.5V68.7z M57.2,61.7l-7.2,4l-7.2-4v-3.3l6.4,3.5    C49.5,62,49.7,62,50,62s0.5-0.1,0.8-0.2l6.4-3.5V61.7z M60.5,78.4v-6.6l6.6-8.5l3.7,7.3L60.5,78.4z"/><path fill="#000000" d="M51.2,52.7c-0.9-5,3.1-6.5,9.2-8.1c3.6-1,6.7-1.8,7.8-4.1c0.6-1.1,0.6-2.4,0.1-3.9c-0.6-1.6-1.6-2.7-3-3.3    c-3.1-1.3-7.2,0.6-11.9,2.8c-4.7,2.2-9.9,4.6-14,3.7c-2.6-0.6-4.2-1.8-4.6-3.4c-0.4-1.3,0.2-2.9,1.3-4c0.6-0.6,2.2-1.8,4.5-1.1    c8.6,2.8,16.7,0.8,19.9-2.6c1.5-1.5,1.9-3.2,1.4-4.9c-0.5-1.3-1.4-2.3-2.7-2.9c-2.3-1-5.7-0.6-9.5,1.1c-2,0.9-3.7,1.1-4.6,0.4    c-0.6-0.4-0.7-0.9-0.7-1.2c0-0.7,0.6-1.1,2.3-2.1c2.1-1.1,5-2.6,5-6.5c0-0.9-0.7-1.6-1.6-1.6s-1.6,0.7-1.6,1.6    c0,1.9-1.2,2.6-3.2,3.6c-1.8,0.9-4.1,2.1-4.1,5c0,1.6,0.8,3,2.2,3.9c1.1,0.7,3.6,1.7,7.8-0.2c2.9-1.3,5.5-1.7,6.9-1.1    c0.5,0.2,0.8,0.5,0.9,0.9c0.2,0.5,0,1-0.6,1.6c-2.1,2.2-8.9,4.2-16.6,1.7c-2.7-0.9-5.6-0.2-7.7,1.8c-2,2-2.9,4.7-2.2,7.2    c0.4,1.6,1.9,4.5,7,5.7c5.2,1.2,11-1.5,16.2-3.9c3.7-1.7,7.5-3.5,9.3-2.8c0.3,0.1,0.8,0.4,1.2,1.4c0.3,0.8,0.1,1.1,0.1,1.2    c-0.5,1-3.3,1.8-5.8,2.5c-2.7,0.7-5.8,1.6-8.1,3.2c-2.9,2-4,5-3.4,8.7c0.1,0.8,0.8,1.4,1.6,1.4c0.1,0,0.2,0,0.3,0    C50.8,54.5,51.4,53.6,51.2,52.7z"/></g><g><path fill="#000000" d="M90.9,85L80.4,65.7c-0.2-0.4-0.6-0.7-1.1-0.8c-0.5-0.1-1,0-1.3,0.3l-4.5,3.4l-4.6-9    c-0.3-0.5-0.7-0.8-1.3-0.9c-0.6-0.1-1.1,0.2-1.4,0.6l-5.6,7.2v-3.7c0-0.1,0-0.3,0-0.4v-6.3l13.6-7.9c0.5-0.3,0.8-0.8,0.8-1.4V20    c0-0.6-0.3-1.1-0.8-1.4L50.8,5.1c-0.5-0.3-1.1-0.3-1.6,0L25.9,18.5c-0.5,0.3-0.8,0.8-0.8,1.4v26.9c0,0.6,0.3,1.1,0.8,1.4l13.6,7.9    v10.2l-5.5-7c-0.3-0.4-0.9-0.7-1.4-0.6c-0.6,0.1-1,0.4-1.3,0.9l-4.6,9l-4.5-3.4c-0.4-0.3-0.9-0.4-1.3-0.3    c-0.5,0.1-0.9,0.4-1.1,0.8L9.1,85c-0.4,0.8-0.1,1.8,0.7,2.2c0.2,0.1,0.5,0.2,0.8,0.2c0.6,0,1.1-0.3,1.4-0.9l9.7-17.7l3.5,2.6    l-2.2,4.4c-0.4,0.8-0.1,1.8,0.7,2.2c0.2,0.1,0.5,0.2,0.7,0.2c0.6,0,1.2-0.3,1.5-0.9l2-3.9l11.6,8.8l-11.3-3.6    c-0.8-0.2-1.6,0.1-2,0.8l-7.3,14.2c-0.4,0.8-0.1,1.8,0.7,2.2c0.2,0.1,0.5,0.2,0.7,0.2c0.6,0,1.2-0.3,1.5-0.9l6.7-13L43.5,87    l5.7,3.1c0.2,0.1,0.5,0.2,0.8,0.2s0.5-0.1,0.8-0.2l5.9-3.2l15-4.7l6.6,13c0.3,0.6,0.9,0.9,1.5,0.9c0.3,0,0.5-0.1,0.7-0.2    c0.8-0.4,1.1-1.4,0.7-2.2l-7.3-14.2c-0.4-0.7-1.2-1.1-2-0.8l-11.1,3.5l11.4-8.6l2,3.9c0.3,0.6,0.9,0.9,1.5,0.9    c0.3,0,0.5-0.1,0.7-0.2c0.8-0.4,1.1-1.4,0.7-2.2L75,71.5l3.4-2.6L88,86.6c0.3,0.5,0.9,0.9,1.4,0.9c0.3,0,0.5-0.1,0.8-0.2    C91,86.8,91.3,85.8,90.9,85z M39.5,78.3l-10.3-7.7l3.7-7.3l6.5,8.3V78.3z M28.4,45.9v-25L50,8.4l21.6,12.5v25L50,58.4L28.4,45.9z     M57.2,82.9l-2,1.1c0,0,0,0,0,0L50,86.9l-5-2.8c0,0,0,0,0,0l-2.2-1.2v-3.3l6.4,3.5c0.2,0.1,0.5,0.2,0.8,0.2s0.5-0.1,0.8-0.2    l6.4-3.5V82.9z M57.2,75.8l-7.2,4l-7.2-4v-3.3l6.4,3.5c0.2,0.1,0.5,0.2,0.8,0.2s0.5-0.1,0.8-0.2l6.4-3.5V75.8z M57.2,68.7l-7.2,4    l-7.2-4v-3.3l6.4,3.5c0.2,0.1,0.5,0.2,0.8,0.2c0.3,0,0.5-0.1,0.8-0.2l6.4-3.5V68.7z M57.2,61.7l-7.2,4l-7.2-4v-3.3l6.4,3.5    C49.5,62,49.7,62,50,62s0.5-0.1,0.8-0.2l6.4-3.5V61.7z M60.5,78.4v-6.6l6.6-8.5l3.7,7.3L60.5,78.4z"/><path fill="#000000" d="M51.2,52.7c-0.9-5,3.1-6.5,9.2-8.1c3.6-1,6.7-1.8,7.8-4.1c0.6-1.1,0.6-2.4,0.1-3.9c-0.6-1.6-1.6-2.7-3-3.3    c-3.1-1.3-7.2,0.6-11.9,2.8c-4.7,2.2-9.9,4.6-14,3.7c-2.6-0.6-4.2-1.8-4.6-3.4c-0.4-1.3,0.2-2.9,1.3-4c0.6-0.6,2.2-1.8,4.5-1.1    c8.6,2.8,16.7,0.8,19.9-2.6c1.5-1.5,1.9-3.2,1.4-4.9c-0.5-1.3-1.4-2.3-2.7-2.9c-2.3-1-5.7-0.6-9.5,1.1c-2,0.9-3.7,1.1-4.6,0.4    c-0.6-0.4-0.7-0.9-0.7-1.2c0-0.7,0.6-1.1,2.3-2.1c2.1-1.1,5-2.6,5-6.5c0-0.9-0.7-1.6-1.6-1.6s-1.6,0.7-1.6,1.6    c0,1.9-1.2,2.6-3.2,3.6c-1.8,0.9-4.1,2.1-4.1,5c0,1.6,0.8,3,2.2,3.9c1.1,0.7,3.6,1.7,7.8-0.2c2.9-1.3,5.5-1.7,6.9-1.1    c0.5,0.2,0.8,0.5,0.9,0.9c0.2,0.5,0,1-0.6,1.6c-2.1,2.2-8.9,4.2-16.6,1.7c-2.7-0.9-5.6-0.2-7.7,1.8c-2,2-2.9,4.7-2.2,7.2    c0.4,1.6,1.9,4.5,7,5.7c5.2,1.2,11-1.5,16.2-3.9c3.7-1.7,7.5-3.5,9.3-2.8c0.3,0.1,0.8,0.4,1.2,1.4c0.3,0.8,0.1,1.1,0.1,1.2    c-0.5,1-3.3,1.8-5.8,2.5c-2.7,0.7-5.8,1.6-8.1,3.2c-2.9,2-4,5-3.4,8.7c0.1,0.8,0.8,1.4,1.6,1.4c0.1,0,0.2,0,0.3,0    C50.8,54.5,51.4,53.6,51.2,52.7z"/></g></g><text x="0" y="115" fill="#000000" font-size="5px" font-weight="bold" font-family="'Helvetica Neue', Helvetica, Arial-Unicode, Arial, Sans-serif">Created by HeadsOfBirds</text><text x="0" y="120" fill="#000000" font-size="5px" font-weight="bold" font-family="'Helvetica Neue', Helvetica, Arial-Unicode, Arial, Sans-serif">from the Noun Project</text></svg>