<svg xmlns="http://www.w3.org/2000/svg" xmlns:xlink="http://www.w3.org/1999/xlink" version="1.1" x="0px" y="0px" viewBox="0 0 100 125" enable-background="new 0 0 100 100" xml:space="preserve"><g><path d="M82.098,63.117c0.1-1.464,0.509-2.111,1.028-2.929c0.6-0.947,1.347-2.126,1.476-4.465c0-1.214-0.651-2.272-1.281-3.295   c-0.452-0.734-0.919-1.493-0.98-2.086c-0.05-0.485,0.219-1.245,0.479-1.979c0.412-1.166,0.879-2.488,0.521-3.819   c-0.445-1.65-1.81-2.624-2.906-3.407c-0.502-0.358-1.021-0.729-1.25-1.034c-0.248-0.331-0.491-0.771-0.749-1.236   c-0.529-0.956-1.201-2.138-2.265-2.817c-0.19-1.421-0.578-2.766-1.203-4.051c0.904-1.859,1.345-3.833,1.345-6   c0-6.654-4.536-10.958-6.973-13.27l-0.089-0.084c-0.277-0.263-0.549-0.521-0.807-0.778c-0.256-0.257-0.515-0.529-0.777-0.806   l-0.084-0.089C65.269,8.536,60.965,4,54.311,4c-2.167,0-4.141,0.441-6,1.345C46.452,4.441,44.479,4,42.311,4   c-6.654,0-10.958,4.536-13.27,6.973l-0.084,0.089c-0.263,0.277-0.521,0.549-0.778,0.807c-0.257,0.256-0.529,0.515-0.806,0.777   l-0.089,0.084c-2.437,2.313-6.973,6.616-6.973,13.27c0,2.167,0.441,4.141,1.345,6c-0.624,1.282-1.011,2.625-1.202,4.043   c-1.008,0.629-1.704,1.698-2.298,2.627c-0.323,0.505-0.627,0.981-0.936,1.329c-0.278,0.313-0.857,0.657-1.418,0.99   c-1.167,0.693-2.619,1.557-3.224,3.147c-0.509,1.336-0.165,2.743,0.139,3.984c0.187,0.765,0.38,1.555,0.292,2.057   c-0.11,0.623-0.606,1.384-1.086,2.12c-0.697,1.071-1.419,2.178-1.419,3.458l0.006,0.131c0.179,2.037,1,3.049,1.659,3.863   c0.544,0.671,0.903,1.114,1.026,2.227c0.125,1.129-0.125,1.639-0.504,2.411c-0.452,0.92-1.014,2.065-0.792,4.062   c0.22,1.997,1.019,2.991,1.661,3.79c0.538,0.669,0.893,1.112,1.018,2.24c0.13,1.174-0.112,1.681-0.477,2.448   c-0.417,0.875-0.935,1.963-0.833,3.875c0.043,0.8,0.705,1.419,1.497,1.419c0.027,0,0.055,0,0.082-0.002   c0.827-0.044,1.462-0.751,1.417-1.579c-0.062-1.149,0.193-1.684,0.545-2.423c0.434-0.911,0.974-2.045,0.75-4.068   c-0.22-1.997-1.019-2.991-1.661-3.79c-0.538-0.669-0.893-1.112-1.018-2.24c-0.125-1.129,0.125-1.639,0.504-2.411   c0.452-0.92,1.014-2.065,0.792-4.063c-0.22-1.987-1.028-2.984-1.677-3.786c-0.529-0.653-0.884-1.09-0.993-2.152   c0.038-0.403,0.531-1.16,0.93-1.773c0.614-0.941,1.309-2.009,1.526-3.234c0.199-1.124-0.083-2.276-0.332-3.293   c-0.2-0.816-0.426-1.741-0.25-2.204c0.233-0.613,1.108-1.133,1.954-1.636c0.757-0.45,1.54-0.916,2.127-1.576   c0.407-0.458,0.747-0.973,1.074-1.482c0.939,5.243,4.632,8.753,6.747,10.76l0.089,0.084c0.277,0.263,0.549,0.521,0.807,0.778   c0.256,0.257,0.515,0.529,0.777,0.806l0.084,0.089c2.218,2.337,6.273,6.593,12.47,6.939c-0.167,0.518-0.39,0.945-0.639,1.421   c-0.57,1.089-1.216,2.322-1.281,4.711c-0.064,2.388,0.514,3.655,1.024,4.772c0.447,0.979,0.8,1.752,0.754,3.445   c-0.046,1.695-0.44,2.448-0.939,3.402c-0.57,1.089-1.216,2.323-1.281,4.712s0.514,3.657,1.024,4.775   c0.447,0.979,0.8,1.753,0.754,3.448c-0.022,0.828,0.631,1.518,1.459,1.54c0.014,0,0.027,0,0.042,0c0.809,0,1.477-0.645,1.499-1.459   c0.065-2.389-0.514-3.657-1.024-4.775c-0.447-0.979-0.8-1.753-0.754-3.448c0.046-1.695,0.44-2.448,0.94-3.402   c0.57-1.089,1.216-2.323,1.281-4.713c0.065-2.388-0.514-3.655-1.024-4.772c-0.447-0.979-0.8-1.751-0.754-3.445   c0.046-1.694,0.44-2.447,0.94-3.4c0.413-0.788,0.862-1.659,1.105-2.982c1.282-0.207,2.506-0.572,3.677-1.141   c1.605,0.78,3.303,1.195,5.13,1.299c-0.031,0.061-0.057,0.116-0.091,0.181c-0.434,0.829-1.027,1.964-0.782,3.848   c0.245,1.886,1.109,2.832,1.74,3.522c0.535,0.585,0.857,0.938,0.98,1.885c0.123,0.949-0.098,1.374-0.465,2.077   c-0.433,0.83-1.026,1.966-0.78,3.852c0.245,1.886,1.109,2.833,1.74,3.524c0.535,0.585,0.857,0.939,0.981,1.888   c0.098,0.756,0.743,1.307,1.485,1.307c0.064,0,0.13-0.004,0.195-0.013c0.822-0.106,1.401-0.859,1.294-1.681   c-0.245-1.886-1.109-2.833-1.74-3.524c-0.535-0.585-0.857-0.939-0.981-1.888c-0.124-0.949,0.098-1.373,0.465-2.076   c0.433-0.83,1.026-1.966,0.78-3.852c-0.245-1.885-1.109-2.831-1.74-3.522c-0.534-0.585-0.857-0.938-0.98-1.886   c-0.123-0.946,0.099-1.37,0.465-2.071c0.239-0.456,0.521-1.011,0.69-1.726c5.312-0.902,8.86-4.641,10.882-6.773l0.084-0.089   c0.263-0.277,0.521-0.549,0.778-0.807c0.257-0.256,0.529-0.515,0.806-0.777l0.089-0.084c2.086-1.979,5.701-5.424,6.702-10.546   c0.228,0.403,0.465,0.806,0.743,1.178c0.507,0.677,1.218,1.185,1.906,1.676c0.781,0.557,1.588,1.133,1.753,1.747   c0.116,0.429-0.186,1.283-0.453,2.037c-0.353,0.999-0.753,2.131-0.634,3.287c0.131,1.274,0.811,2.377,1.41,3.351   c0.373,0.605,0.836,1.358,0.838,1.638c-0.083,1.476-0.493,2.123-1.013,2.942c-0.595,0.939-1.336,2.108-1.487,4.332   c-0.151,2.23,0.418,3.486,0.876,4.496c0.4,0.881,0.716,1.577,0.615,3.053c-0.101,1.478-0.508,2.125-1.023,2.945   c-0.59,0.938-1.325,2.106-1.477,4.338c-0.153,2.254,0.378,3.455,0.847,4.513c0.389,0.879,0.696,1.574,0.643,3.057   c-0.03,0.828,0.617,1.523,1.445,1.553c0.019,0,0.037,0.001,0.055,0.001c0.804,0,1.469-0.637,1.498-1.446   c0.078-2.174-0.463-3.397-0.898-4.379c-0.391-0.883-0.7-1.581-0.597-3.095c0.101-1.478,0.508-2.125,1.023-2.944   c0.59-0.938,1.325-2.107,1.477-4.339c0.151-2.23-0.418-3.486-0.876-4.496C82.313,65.289,81.997,64.592,82.098,63.117z    M70.976,33.018c0.898,1.521,1.335,3.151,1.335,4.982c0,4.935-3.446,8.205-5.728,10.369l-0.088,0.083   c-0.303,0.288-0.6,0.57-0.88,0.851c-0.282,0.281-0.564,0.579-0.852,0.881l-0.084,0.089C62.516,52.554,59.246,56,54.311,56   c-1.832,0-3.461-0.437-4.982-1.335l-1.018-0.602l-1.018,0.602C45.772,55.563,44.143,56,42.311,56   c-4.935,0-8.205-3.446-10.369-5.728l-0.083-0.088c-0.288-0.303-0.57-0.6-0.851-0.88c-0.281-0.282-0.579-0.564-0.881-0.852   l-0.089-0.084c-2.28-2.164-5.727-5.433-5.727-10.368c0-1.832,0.437-3.461,1.335-4.982L26.248,32l-0.602-1.018   c-0.898-1.521-1.335-3.151-1.335-4.982c0-4.935,3.446-8.205,5.728-10.369l0.088-0.083c0.303-0.288,0.6-0.57,0.88-0.851   c0.282-0.281,0.564-0.579,0.852-0.881l0.084-0.089C34.106,11.446,37.376,8,42.311,8c1.832,0,3.461,0.437,4.982,1.335l1.018,0.602   l1.018-0.602C50.85,8.437,52.479,8,54.311,8c4.935,0,8.205,3.446,10.369,5.728l0.083,0.088c0.288,0.303,0.57,0.6,0.851,0.88   c0.281,0.282,0.579,0.564,0.881,0.852l0.089,0.084c2.28,2.164,5.727,5.433,5.727,10.368c0,1.832-0.437,3.461-1.335,4.982L70.374,32   L70.976,33.018z"/><g><path d="M54.714,33c-3.265,0-5.921,2.656-5.921,5.921c0,3.265,2.656,5.921,5.921,5.921c3.265,0,5.921-2.656,5.921-5.921    C60.635,35.656,57.979,33,54.714,33z"/><path d="M67.311,26c0-3.3-3.057-5.593-5.232-7.768C59.904,16.057,57.611,13,54.311,13c-3,0-3,2-6,2s-3-2-6-2    c-3.3,0-5.593,3.057-7.768,5.232C32.368,20.407,29.311,22.7,29.311,26c0,3,2,3,2,6s-2,3-2,6c0,3.3,3.057,5.593,5.232,7.768    S39.011,51,42.311,51c3,0,3-2,6-2s3,2,6,2c3.3,0,5.593-3.057,7.768-5.232c2.175-2.175,5.232-4.468,5.232-7.768c0-3-2-3-2-6    S67.311,29,67.311,26z M55.491,21.333c1.749,0,3.167,1.418,3.167,3.167s-1.418,3.167-3.167,3.167s-3.167-1.418-3.167-3.167    S53.742,21.333,55.491,21.333z M39.266,44.333c-2.485,0-4.5-2.015-4.5-4.5s2.015-4.5,4.5-4.5s4.5,2.015,4.5,4.5    S41.751,44.333,39.266,44.333z M40.021,31.667c-3.584,0-6.5-2.916-6.5-6.5s2.916-6.5,6.5-6.5s6.5,2.916,6.5,6.5    S43.605,31.667,40.021,31.667z M54.714,46.842c-4.368,0-7.921-3.553-7.921-7.921S50.346,31,54.714,31s7.921,3.554,7.921,7.921    S59.082,46.842,54.714,46.842z"/><path d="M40.021,20.667c-2.481,0-4.5,2.019-4.5,4.5s2.019,4.5,4.5,4.5s4.5-2.019,4.5-4.5S42.503,20.667,40.021,20.667z"/></g></g><text x="0" y="115" fill="#000000" font-size="5px" font-weight="bold" font-family="'Helvetica Neue', Helvetica, Arial-Unicode, Arial, Sans-serif">Created by Maxim Kulikov</text><text x="0" y="120" fill="#000000" font-size="5px" font-weight="bold" font-family="'Helvetica Neue', Helvetica, Arial-Unicode, Arial, Sans-serif">from the Noun Project</text></svg>