<svg viewBox="0 0 41 89" xmlns="http://www.w3.org/2000/svg" fill-rule="evenodd" clip-rule="evenodd" stroke-linejoin="round" stroke-miterlimit="1.41"><path d="M40.4 42.7a44.18 44.18 0 0 0-1.73-5.39c.31-.13.58-.33.8-.6.42-.54.53-1.23.3-1.87a44.32 44.32 0 0 0-3-6.68c.66-.15 1.19-.58 1.45-1.18a1.9 1.9 0 0 0-.2-1.89 31.55 31.55 0 0 0-4.04-4.68c.39-.28.66-.68.77-1.15.13-.6-.01-1.19-.41-1.67a22.99 22.99 0 0 0-7.59-6.01l.25-.94a3.8 3.8 0 0 0-.79-3.46 4.14 4.14 0 0 0-2.9-1.47l.02-.14.83-1.9 2.39-1.58 8.98 1.3 4.13-.25-.12-2-3.92.24L26.07 0l-3.5 2.34-1.13 2.57-.11.76h-1.95l-.06-.49-1.2-2.84L14.62 0 5.07 1.38l-3.92-.23-.11 2 4.12.24 8.99-1.3 2.38 1.59.83 1.9.02.17c-.95.18-1.8.65-2.43 1.4a3.8 3.8 0 0 0-.83 3.41l.23.96a22.89 22.89 0 0 0-7.53 5.87c-.42.5-.57 1.11-.4 1.73.15.6.56 1.08 1.14 1.34l.14.08c-1.47 1.4-2.84 3-4.07 4.78a1.89 1.89 0 0 0-.24 1.75c.17.48.51.85.96 1.09a44.26 44.26 0 0 0-3.01 6.64 1.93 1.93 0 0 0 .57 2.15 44.07 44.07 0 0 0-1.85 5.62c-.14.56-.04 1.14.3 1.61.33.47.81.76 1.38.85.32.05.62.13.91.24-.14.2-.26.41-.32.67-.43 1.71-.76 3.5-.98 5.32a2.02 2.02 0 0 0 1.68 2.2c.07.02.14.05.22.06-.05.12-.1.24-.12.38a33.54 33.54 0 0 0-.59 6.1c0 .97.7 1.8 1.7 1.97l.6.15a29.27 29.27 0 0 0-.08 7.03 2.96 2.96 0 0 0 1.68 2.35c.6.3 1.23.38 1.86.29a34.82 34.82 0 0 0-.08 5.41 2.96 2.96 0 0 0 1.81 2.54c.42.19.86.28 1.31.28l.32-.02c.03 2.7.78 5.33 2.12 7.41a2.1 2.1 0 0 0 2.29.87 2 2 0 0 0 1.52-1.93v-2.68c0-1.1.98-2 2.18-2h2.31c1.2 0 2.18.9 2.18 2v2.68a2 2 0 0 0 1.52 1.94 2.06 2.06 0 0 0 2.29-.87 14.22 14.22 0 0 0 2.13-7.63l-.02-.47a3.2 3.2 0 0 0 1.8-.3 2.96 2.96 0 0 0 1.7-2.54 34.6 34.6 0 0 0-.13-4.64 3.2 3.2 0 0 0 1.36-.33 2.97 2.97 0 0 0 1.68-2.36 29.97 29.97 0 0 0-.02-6.54l.6-.34c.7-.34 1.12-1 1.13-1.77v-.32c0-2.01-.18-4.01-.52-5.95-.04-.2-.11-.38-.2-.56.15-.05.3-.1.47-.14a2 2 0 0 0 1.58-2.18 44 44 0 0 0-.97-5.34c-.06-.27-.2-.5-.35-.7.2-.08.39-.15.6-.2.53-.13.99-.46 1.27-.93.27-.45.35-.98.22-1.49zm-2.58-7.22l-.58.02h-.12c-.48.02-.94.07-1.4.14l-.15.03c-.48.08-.95.2-1.42.34l-.08.03c-.48.16-.95.34-1.41.56l-.04.02c-.47.23-.92.49-1.37.78l-.1-.03a34.78 34.78 0 0 0-1.39-.43c-3-.88-6.1-1.33-9.25-1.35h-.19c-4.02 0-7.96.7-11.8 2.08-.38-.3-.77-.57-1.18-.81l-.12-.06a10.8 10.8 0 0 0-3.9-1.33l-.1-.01c.8-2.23 1.76-4.35 2.86-6.32l.07.06c.22.2.43.4.6.64.11.15.24.27.39.39l.14.1a2.07 2.07 0 0 0 1.06.34l.12.01c.14 0 .28-.01.42-.04a67.46 67.46 0 0 1 23.21-.15c.13.02.27.03.4.03l.1-.01.2-.02c.11-.02.22-.04.33-.08l.18-.06c.11-.04.21-.1.31-.16l.15-.09c.14-.1.26-.22.38-.35.14-.18.3-.34.47-.49l.16-.13.18-.13c1.13 2.02 2.1 4.2 2.87 6.48zM16.2 10.71l-.15-.61c-.14-.61 0-1.17.41-1.66a2.15 2.15 0 0 1 1.72-.77h4.75c.71 0 1.3.26 1.73.78.42.5.55 1.07.39 1.68l-.16.63-.41-.14-.14-.05c-.58-.2-1.16-.36-1.75-.5l-.18-.04c-.6-.13-1.2-.25-1.8-.32l-.13-.02-.12.02c-.6.07-1.2.18-1.79.32l-.15.03a19.37 19.37 0 0 0-1.85.53l-.37.12zm2.42 1.36l.33-.08c.5-.11 1.02-.21 1.53-.28.52.07 1.04.17 1.55.29l.36.09c.49.12.98.26 1.46.43l.04.01a20.45 20.45 0 0 1 8.87 6.29c-.2.1-.4.22-.58.35l-.05-.04-.6.5-.09.07c-.15.12-.29.26-.43.4l-.23.22c-.2.22-.4.44-.56.69l-.08.02h-.1c-.72-.21-1.46-.4-2.2-.56-.49-.11-.99-.2-1.48-.28l-.75-.14c-.54-.08-1.09-.13-1.63-.19l-.65-.06c-.52-.05-1.04-.06-1.56-.08-.26 0-.51-.02-.77-.03h-.33c-.49 0-.97.02-1.45.04l-.44.01c-.62.04-1.23.1-1.85.16l-.38.04c-.62.08-1.23.18-1.84.29l-.37.06c-.73.14-1.45.3-2.16.5a1.5 1.5 0 0 1-.38.05c-.37 0-.72-.15-.96-.42a6.68 6.68 0 0 0-.72-.68l-.13-.12-.75-.6-.06.07c-.27-.15-.55-.3-.85-.4a19.97 19.97 0 0 1 10.29-6.62zm-9.33 9.7l.04-.02h.01c.81.91 2.13 1.3 3.36.97a30.9 30.9 0 0 1 8.4-1.03c2.85.04 5.7.46 8.37 1.26.2.07.42.1.64.1.23 0 .44-.05.65-.11l.08-.03c.17-.06.33-.14.48-.25l.1-.06c.16-.13.3-.27.43-.43a4.87 4.87 0 0 1 .43-.52l.04-.04h.02a27.08 27.08 0 0 1 3.98 4.6c-.2.05-.4.12-.59.18l-.04-.07-.82.39a7.08 7.08 0 0 0-2.3 1.77c0 .01-.04.04-.14.04a67.88 67.88 0 0 0-17.84-.69c-2.08.2-4.13.48-6.14.85-.03 0-.08 0-.1-.04A6.25 6.25 0 0 0 7.8 28l-.17-.16a6.4 6.4 0 0 0-.59-.49L7 27.32c-.25-.18-.5-.35-.77-.5l-.85-.45-.06.11-.04-.02a29.38 29.38 0 0 1 4.02-4.7zm17.1 64.56c-.03.02-.06.02-.07.02h-.07v-2.68c0-2.2-1.87-4-4.18-4h-2.3a4.1 4.1 0 0 0-4.19 4v2.66h-.13a12.2 12.2 0 0 1-1.8-7.2l.25-.16a13.25 13.25 0 0 1 1-.55l.2-.1.88-.38.04-.02c1.34-.52 2.78-.84 4.25-.96h.06a15.4 15.4 0 0 1 2.74.05l.2.02c.51.06 1.02.15 1.52.26l.23.06c.5.12.99.26 1.46.43l.2.08a14.26 14.26 0 0 1 1.45.63c.04.43.06.87.06 1.3 0 2.4-.64 4.73-1.8 6.54zm5.28-9.94a.96.96 0 0 1-.58.84c-.37.18-.76.17-1.1-.02l-.45-.24-.3-.15-.45-.24-.5-.22-.49-.22-.47-.18-.54-.19-.46-.14-.58-.17-.47-.1c-.19-.05-.38-.1-.58-.13l-.5-.09-.57-.08-.62-.07-.46-.04a18.4 18.4 0 0 0-2.38.01l-.57.06-.69.08c-.23.03-.45.08-.68.13l-.54.1c-.24.05-.48.12-.71.18l-.5.13-.67.23c-.16.06-.33.1-.49.17l-.62.27-.5.22-.56.3-.53.28-.5.3-.48.31-.13.09c-.35.24-.77.28-1.17.1-.27-.11-.6-.35-.63-.84a33.25 33.25 0 0 1 .17-6.09l.14-.06.53-.22.73-.3.6-.22a23.3 23.3 0 0 1 3.4-.92l.68-.12.75-.1.63-.1.89-.07.52-.04a26.99 26.99 0 0 1 2.9 0l.5.04c.31.03.63.05.94.09l.6.08c.28.04.56.07.83.12l.63.12.78.16.64.17.75.2.62.2c.25.07.49.15.73.24l.61.23.7.29.6.26.42.2a32.58 32.58 0 0 1 .18 5.17zm2.92-7.46a.96.96 0 0 1-.57.78c-.36.18-.75.18-1.1 0l-.01-.01-.04-.02-.58-.28-.8-.38-.54-.22-.91-.37-.48-.16c-.33-.11-.67-.23-1.01-.33-.14-.05-.3-.08-.44-.12l-1.08-.3-.47-.1-1.1-.22-.5-.07-1.07-.16c-.25-.03-.5-.04-.76-.06l-.85-.08a28.09 28.09 0 0 0-3.19 0l-.62.06c-.31.02-.62.04-.93.08-.25.02-.5.07-.76.1l-.78.11-.78.16-.74.15-.77.2-.73.19-.72.23a22.87 22.87 0 0 0-1.43.5l-.74.3-.65.3-.43.19-.47.23v.01l-.12.06c-.36.19-.74.19-1.1.01a.96.96 0 0 1-.58-.78 27.73 27.73 0 0 1 0-6.04l.1.06c.33.2.65.42.94.67a2.1 2.1 0 0 0 2.01.4 35.23 35.23 0 0 1 10.62-1.58c4.27 0 8.5.73 12.2 2.13.17.06.34.1.5.12h.1l.16.02c.1 0 .19-.02.29-.03l.08-.01c.34-.06.66-.2.93-.42l.04-.03a27.18 27.18 0 0 1-.12 4.71zm1.2-14.34c.34 1.82.5 3.7.5 5.59l-.01.2-.01-.07-1.36 1-.09.07a9.1 9.1 0 0 0-.46.38l-.28.24c-.23.22-.45.45-.65.68-.02.02-.03.03-.06.03l-.05-.01a38.79 38.79 0 0 0-24.23-.6c-.3-.25-.61-.48-.94-.7l-.33-.2-.58-.32-.3-.15a2.04 2.04 0 0 0-.73-.27c-.54-.19-1.1-.35-1.68-.46a30 30 0 0 1 .57-5.73h.09c.25.16.48.32.7.5l.19.17c.22.2.43.41.6.64a2.1 2.1 0 0 0 2.24.74 42.08 42.08 0 0 1 11.49-1.57c4.12 0 8.12.57 11.9 1.7.2.05.4.08.61.08h.04a2.1 2.1 0 0 0 1.12-.37l.1-.07c.16-.12.3-.26.42-.42.18-.25.4-.48.63-.7l.1-.08c.13-.12.28-.23.44-.34l.03.04zm-1.14-1.7l-.17.1c-.16.12-.3.25-.45.39l-.2.16c-.23.22-.45.45-.66.72l-.18.23-.1.02v.01a43.91 43.91 0 0 0-12.48-1.77c-4.15 0-8.2.56-12.03 1.64l-.1-.01-.08-.1-.24-.28-.15-.18-.03-.03-.08-.08-.13-.12a7.15 7.15 0 0 0-1.08-.86c-.1-.05-.17-.12-.26-.17l-.05-.02a8.52 8.52 0 0 0-2.85-1.04c.2-1.73.52-3.44.92-5.08h.13l.03.04c.1.1.18.22.26.33l.09.1c.1.16.2.32.28.48a2.1 2.1 0 0 0 2.33 1.08c3.73-.87 7.63-1.3 11.58-1.3 4.95 0 9.75.67 14.28 2 .17.05.34.07.51.07l.09.02.1-.02c.14 0 .29-.03.43-.07.1-.02.19-.06.28-.1l.24-.11.22-.14a2.1 2.1 0 0 0 .69-.94 3.97 3.97 0 0 1 .85-1.43l.07.06c.4 1.64.71 3.35.89 5.08-1.1.25-2.1.72-2.95 1.32zm.49-7.77l-.06.05-.05.06a5.97 5.97 0 0 0-1.13 1.97v.01l-.1.02a52.74 52.74 0 0 0-17.92-2c-3.06.17-6.08.6-9.06 1.25a6 6 0 0 0-.4-.7l-.15-.19a6.2 6.2 0 0 0-.36-.45l-.05-.06-.06-.05A6.48 6.48 0 0 0 2 43.07a41.86 41.86 0 0 1 1.8-5.47l.2.05.38.1a8.64 8.64 0 0 1 1.7.71c.1.06.21.1.3.17.32.18.61.38.9.6a2.14 2.14 0 0 0 1.29.45h.15l.11-.02c.16-.02.32-.05.48-.11.42-.16.85-.3 1.28-.44a32.07 32.07 0 0 1 20 .18c.15.05.3.08.45.1h.1l.15.02.12-.02c.12 0 .24-.03.36-.06a2.02 2.02 0 0 0 .7-.3c.34-.23.7-.43 1.06-.61l.38-.16c.25-.11.5-.22.76-.3l.46-.14.75-.17c.16-.03.32-.06.48-.07.08-.02.17-.02.26-.02.73 1.79 1.35 3.67 1.8 5.6a6.52 6.52 0 0 0-3.27 1.96z" fill-rule="nonzero"/></svg>