<?xml-stylesheet type="text/css" href="../styles/style.css" ?>  

<svg class="svg" viewBox="0 0 83 92" xmlns="http://www.w3.org/2000/svg" fill-rule="evenodd" clip-rule="evenodd" stroke-linejoin="round" stroke-miterlimit="1.41"><g fill-rule="nonzero"><path d="M81.98 80.13l-10.5-19.3c-.2-.4-.6-.7-1.1-.8-.5-.1-1 0-1.3.3l-4.5 3.4-4.6-9c-.3-.5-.7-.8-1.3-.9-.6-.1-1.1.2-1.4.6l-5.6 7.2v-3.7-6.7l13.6-7.9c.5-.3.8-.8.8-1.4v-26.8c0-.6-.3-1.1-.8-1.4L41.88.23c-.5-.3-1.1-.3-1.6 0l-23.3 13.4c-.5.3-.8.8-.8 1.4v26.9c0 .6.3 1.1.8 1.4l13.6 7.9v10.2l-5.5-7c-.3-.4-.9-.7-1.4-.6-.6.1-1 .4-1.3.9l-4.6 9-4.5-3.4c-.4-.3-.9-.4-1.3-.3-.5.1-.9.4-1.1.8L.18 80.13c-.4.8-.1 1.8.7 2.2.2.1.5.2.8.2.6 0 1.1-.3 1.4-.9l9.7-17.7 3.5 2.6-2.2 4.4c-.4.8-.1 1.8.7 2.2.2.1.5.2.7.2.6 0 1.2-.3 1.5-.9l2-3.9 11.6 8.8-11.3-3.6c-.8-.2-1.6.1-2 .8l-7.3 14.2c-.4.8-.1 1.8.7 2.2.2.1.5.2.7.2.6 0 1.2-.3 1.5-.9l6.7-13 15 4.9 5.7 3.1c.2.1.5.2.8.2.3 0 .5-.1.8-.2l5.9-3.2 15-4.7 6.6 13c.3.6.9.9 1.5.9.3 0 .5-.1.7-.2.8-.4 1.1-1.4.7-2.2l-7.3-14.2c-.4-.7-1.2-1.1-2-.8l-11.1 3.5 11.4-8.6 2 3.9c.3.6.9.9 1.5.9.3 0 .5-.1.7-.2.8-.4 1.1-1.4.7-2.2l-2.1-4.5 3.4-2.6 9.6 17.7c.3.5.9.9 1.4.9.3 0 .5-.1.8-.2.8-.5 1.1-1.5.7-2.3zm-51.4-6.7l-10.3-7.7 3.7-7.3 6.5 8.3v6.7h.1zm-11.1-32.4v-25l21.6-12.5 21.6 12.5v25l-21.6 12.5-21.6-12.5zm28.8 37l-2 1.1-5.2 2.9-5-2.8-2.2-1.2v-3.3l6.4 3.5c.2.1.5.2.8.2.3 0 .5-.1.8-.2l6.4-3.5v3.3zm0-7.1l-7.2 4-7.2-4v-3.3l6.4 3.5c.2.1.5.2.8.2.3 0 .5-.1.8-.2l6.4-3.5v3.3zm0-7.1l-7.2 4-7.2-4v-3.3l6.4 3.5c.2.1.5.2.8.2.3 0 .5-.1.8-.2l6.4-3.5v3.3zm0-7l-7.2 4-7.2-4v-3.3l6.4 3.5c.3.1.5.1.8.1.3 0 .5-.1.8-.2l6.4-3.5v3.4zm3.3 16.7v-6.6l6.6-8.5 3.7 7.3-10.3 7.8z"/><path d="M42.28 47.83c-.9-5 3.1-6.5 9.2-8.1 3.6-1 6.7-1.8 7.8-4.1.6-1.1.6-2.4.1-3.9-.6-1.6-1.6-2.7-3-3.3-3.1-1.3-7.2.6-11.9 2.8-4.7 2.2-9.9 4.6-14 3.7-2.6-.6-4.2-1.8-4.6-3.4-.4-1.3.2-2.9 1.3-4 .6-.6 2.2-1.8 4.5-1.1 8.6 2.8 16.7.8 19.9-2.6 1.5-1.5 1.9-3.2 1.4-4.9-.5-1.3-1.4-2.3-2.7-2.9-2.3-1-5.7-.6-9.5 1.1-2 .9-3.7 1.1-4.6.4-.6-.4-.7-.9-.7-1.2 0-.7.6-1.1 2.3-2.1 2.1-1.1 5-2.6 5-6.5 0-.9-.7-1.6-1.6-1.6-.9 0-1.6.7-1.6 1.6 0 1.9-1.2 2.6-3.2 3.6-1.8.9-4.1 2.1-4.1 5 0 1.6.8 3 2.2 3.9 1.1.7 3.6 1.7 7.8-.2 2.9-1.3 5.5-1.7 6.9-1.1.5.2.8.5.9.9.2.5 0 1-.6 1.6-2.1 2.2-8.9 4.2-16.6 1.7a7.6 7.6 0 0 0-7.7 1.8c-2 2-2.9 4.7-2.2 7.2.4 1.6 1.9 4.5 7 5.7 5.2 1.2 11-1.5 16.2-3.9 3.7-1.7 7.5-3.5 9.3-2.8.3.1.8.4 1.2 1.4.3.8.1 1.1.1 1.2-.5 1-3.3 1.8-5.8 2.5-2.7.7-5.8 1.6-8.1 3.2-2.9 2-4 5-3.4 8.7.1.8.8 1.4 1.6 1.4h.3c.5.1 1.1-.8.9-1.7z"/></g></svg>