<?xml version="1.0" encoding="UTF-8" standalone="no"?><!DOCTYPE svg PUBLIC "-//W3C//DTD SVG 1.1//EN" "http://www.w3.org/Graphics/SVG/1.1/DTD/svg11.dtd"><svg width="100%" height="100%" viewBox="0 0 100 53" version="1.1" xmlns="http://www.w3.org/2000/svg" xmlns:xlink="http://www.w3.org/1999/xlink" xml:space="preserve" style="fill-rule:evenodd;clip-rule:evenodd;stroke-linejoin:round;stroke-miterlimit:1.41421;"><path id="southAmerica" d="M24.938,28.23l4.704,0.472l3.17,2.353l0.476,1.883l4.117,1.997l-2.353,4.821l-2.355,0.355l-0.352,1.882l-4.823,4.117l-2.229,4.233l1.641,1.766l-2.704,-0.705l-0.947,-2.352l2.711,-10.945l-2.237,-1.998l-1.029,-4.123l2.21,-3.756Z" style="fill:#000;"/><path id="southEastAsia" d="M81.288,22.188l-2.339,0.126l-0.613,1.002l1.307,1.928l-1.387,1.156l-1.42,-1.471l-0.047,1.391l1.236,1.392l0.536,2.468l1.547,0.541l2.08,0.846l-3.853,-0.692l-1.619,-1.546l-1.467,-2.079l2.005,1.003l-0.927,-1.695l-0.185,-2.305l-0.894,0.226l-0.904,-1.942l0,-1.609l0.633,0.39c0.039,0.022 0.076,0.033 0.121,0.037c0.026,0 0.025,0 0.051,-0.003l3.289,-0.549l2.85,1.385ZM79.645,29.953l2.004,0.384l0.928,-2.851l-0.543,-0.466l-2.696,1.698l0.307,1.235Z" style="fill:#000;"/><path id="japan" d="M89.59,11.681l-0.536,0l-0.08,2.774l-1.386,2.929l-1.774,1.314l-0.078,1.153l3.238,-1.926l0.153,-2.004l1.077,-1.002l-0.842,-0.693l0.456,-1.616l-0.228,-0.929Z" style="fill:#000;fill-rule:nonzero;"/><path id="oceania" d="M97.916,39.663l0.233,2.159l-2.39,2.238l1.544,0.153l1.382,-2.084l1.081,-1.462l-0.693,-0.074l-1.157,-0.93ZM88.999,31.882l-0.252,1.998l-1.694,-0.615l0.313,-1.082l-1.852,-0.15l-2.4,2.236l-2.546,0.922l0.623,3.464l-0.235,0.688l0.931,0.54l3.775,-0.934l1.46,0.849l0.695,-0.387l0.463,1.401l1.924,0.541l1.391,-0.851l0.77,-4.154l-2.08,-2.079l-1.286,-2.387ZM91.283,32.033l-0.69,-1.466l-3.16,-1.538l-1.619,0.151l2.079,2.159l1.194,0.084l0.503,-0.471l1.693,1.081Z" style="fill:#000;"/><path id="britainIrelandScotlandWales" d="M46.392,7.224l0,2.244l1.557,-0.683l0.439,-0.69l-1.687,-3.244l-0.993,0.689l0.061,0.871l-0.938,1.129l-0.065,1.182l1.127,0l0.499,-1.498Z" style="fill:#000;fill-rule:nonzero;"/><path id="madagascar" d="M60.492,33.672l-0.063,2.499l1.004,0.433l0.996,-2.994l-0.252,-1.246l-1.685,1.308Z" style="fill:#000;fill-rule:nonzero;"/><path id="greenland" d="M35.535,2.283l-1.737,-0.473l-2.146,2.292l2.761,7.187l1.306,0.321l0.106,-2.335l0.882,-0.545l0.051,-0.887l0.91,-1.711l-0.634,-1.299l-1.499,-2.55Z" style="fill:#000;fill-rule:nonzero;"/><path id="centralAmerica" d="M14.339,22.667l5.017,0.981l-0.539,1.523l0.823,1.182l1.178,-0.946l1.175,0.118l-0.586,1.669l1.409,0.098l0.467,1.764l0.493,0.163l-0.406,0.689l-0.554,0.086l-1.644,-2.117l-1.411,-0.708l-3.296,-1.172l-2.126,-3.33Z" style="fill:#000;"/><path id="northAmerica" d="M31.523,13.599l1.289,2.873l-3.644,1.642l-2.823,1.53l-2.233,3.058l0,1.531l-0.829,0.115l-0.582,-1.646l-3.169,0.471l-5.564,-1.088l-0.206,-0.322l-1.647,-3.059l0,-3.918l19.408,-1.187Z" style="fill:#000;"/><path id="theFarNorth" d="M11.943,14.296l-2.535,-4.296l-3.412,-2.121l-2.115,1.181l-3.881,1.881l2.468,-2l-1.53,-0.354l-0.586,-1.999l1.763,-1.411l-1.763,-0.235l0.351,-1.292l1.296,0l-1.175,-1.768l3.172,-1.882l5.768,3.177l2.119,-1.999l4.582,2.706l8.828,-0.943l0,4.472l-3.535,0.704l-0.706,1.883l3.31,3.536l-12.419,0.76ZM25.299,13.479l0.573,-4.538l2.24,-0.117l0.937,2.586l1.175,-0.706l1.08,2.408l-6.005,0.367Z" style="fill:#000;"/><path id="middleEast" d="M59.796,15.762c0.599,0.098 1.215,0.21 2.249,0.397l-0.3,1.166l1.741,0.126l-0.163,-1.039l2.058,0.441l1.996,1.528l-0.27,2.925l-3.655,-0.684l-1.077,-0.922l-0.541,0.305l0.772,1.852l1.232,-0.616l1.624,1.232l-4.781,2.851l-2.47,-4.856l0,0l-0.591,-1.26l0.21,-0.126l0.344,-1.156l-2.115,-0.352l-0.296,-0.514l0.509,-0.865l1.855,-0.307l1.368,0.37l0.301,-0.496Z" style="fill:#000;"/><path id="scandanavia" d="M59.001,2.402l-3.344,4.296l-1.156,0.327l-0.459,-1.119l-0.069,-0.007l0.036,-0.08l-0.192,-0.475l0.527,-0.377l0.461,-1.171l-0.494,-0.078l-0.805,1.001l-0.689,1.497l0.751,0.809l-0.751,1.998l-1.119,0.436l-0.63,-1.994l-1.309,0.746l-0.625,-0.371l0.062,-1.934l1.126,-0.877l0.934,-2.308l2.375,-1.309l5.37,0.99Z" style="fill:#000;"/><path id="westEurope" d="M54.861,16.184l-0.424,1.453l-0.934,-1.19l0.062,-0.992l-1.251,-1.002l-0.749,-0.373l0.064,1l1.562,1.056l-0.816,0.942l-1.121,-1.502l-0.807,-0.937l-1.876,0.937l-1.309,2.062l-1.998,-0.312l-0.124,-2.499l2.554,0.188l-0.805,-1.309l-0.501,-1.062l1.934,-0.624l1.06,-1.434l0.876,-0.064l-0.188,-0.812l0.56,-0.748l0.437,1.248l0.114,0.003l3.68,5.971Z" style="fill:#000;"/><path id="eastEurope" d="M54.971,8.246l3.185,0.946l1.621,3.543l-0.999,1.93l-1.967,-1.023l-0.997,1.749l0.168,0.311l-0.406,0.69l-3.798,-6.164l1.727,0.044l0.682,-1.75l0.942,0.318l-0.158,-0.594Z" style="fill:#000;"/><path id="russia" d="M63.083,13.453l-1.716,0.939l0.472,1.205c-0.573,-0.11 -1.185,-0.219 -1.918,-0.338l-0.699,-0.364l1.055,-2.038c0.033,-0.073 0.035,-0.144 0.005,-0.219c-0.576,-1.259 -1.094,-2.547 -1.729,-3.778c-0.036,-0.057 -0.082,-0.093 -0.146,-0.115l-3.587,-1.065l-0.007,-0.026l1.451,-0.471l-0.183,-0.215l3.475,-4.465c6.835,-0.72 19.222,-2.03 19.222,-2.03l20.451,2.885l0.771,2.156l-2.777,1.544l-2.079,0.458l0.078,1.775l-2.006,2.467l-0.076,-2.773l2.619,-3.163l-1.617,0.234l-2.083,1.693l-2.546,-0.153l-1.702,1.637l-2.969,-0.517c-0.049,-0.004 -0.092,-0.004 -0.138,0.015c-0.015,0.006 -0.028,0.014 -0.042,0.022l-1.656,1.079l-1.445,1.107l-1.69,0l-2.215,-1.061l0,-0.916c-0.005,-0.059 -0.017,-0.111 -0.056,-0.158c-0.024,-0.029 -0.033,-0.033 -0.064,-0.056l-1.176,-0.715c-0.054,-0.027 -0.105,-0.043 -0.166,-0.034c-0.014,0.002 -0.028,0.006 -0.042,0.01l-0.04,0.017l-1.247,0.665l-2.047,-0.682c-0.044,-0.011 -0.078,-0.013 -0.123,-0.009l-0.04,0.011l-1.86,0.664l-1.801,-1.691c-0.049,-0.039 -0.098,-0.065 -0.162,-0.068c-0.015,0 -0.03,0.002 -0.045,0.002l-0.043,0.011l-3.181,1.052l-2.79,-1.049c-0.042,-0.011 -0.052,-0.017 -0.096,-0.016c-0.066,0.002 -0.13,0.031 -0.175,0.079c-0.011,0.012 -0.019,0.026 -0.029,0.039l-1.116,1.796c-0.007,0.014 -0.015,0.027 -0.02,0.042c-0.025,0.062 -0.018,0.12 0,0.182l1.746,4.399Z" style="fill:#000;"/><path id="centralAsia" d="M73.844,22.388l-2.678,1.86l0,1.311l-1.083,1.076l-1.389,-3.467l-1.131,-1.364l0.324,-3.514c0.001,-0.028 0.002,-0.035 -0.002,-0.063c-0.011,-0.066 -0.046,-0.116 -0.095,-0.159c-0.724,-0.554 -1.419,-1.148 -2.173,-1.661l-0.024,-0.013c-0.026,-0.011 -0.025,-0.01 -0.052,-0.018c-0.906,-0.194 -1.626,-0.352 -2.302,-0.496l-0.057,-0.364l-0.629,-0.938l0.751,-0.312l0,-0.665l0.325,-0.129l-1.78,-4.485l0.94,-1.515l2.681,1.008c0.045,0.013 0.079,0.016 0.125,0.013l0.042,-0.009l3.123,-1.034l1.804,1.694c0.05,0.039 0.1,0.066 0.165,0.068c0.015,0 0.031,-0.002 0.046,-0.003l0.044,-0.012l1.923,-0.686l2.067,0.688c0.016,0.004 0.033,0.009 0.049,0.011c0.055,0.007 0.098,-0.007 0.148,-0.027l1.216,-0.649l0.934,0.569l0,0.933l0.001,0l-0.977,1.264c-0.016,0.024 -0.028,0.046 -0.039,0.072c-0.325,0.957 -0.706,1.897 -0.974,2.872c-0.005,0.031 -0.006,0.058 -0.003,0.089l0.006,0.029l0.932,3.416l-2.199,2.604c-0.031,0.041 -0.049,0.081 -0.058,0.132l-0.001,0.029l0,1.845Z" style="fill:#000;"/><path id="eastAsia" d="M74.507,20.441l2.062,-2.441c0.044,-0.061 0.061,-0.119 0.057,-0.193l-0.007,-0.034l-0.946,-3.469l0.928,-2.731l0.928,-1.201l2.177,1.042c0.038,0.015 0.069,0.022 0.108,0.025l1.831,0c0.045,-0.004 0.078,-0.012 0.118,-0.029l0.035,-0.023c1.486,-1.139 1.486,-1.14 3.055,-2.162l2.938,0.512l0.022,-0.126l1.161,0.839l-1.616,4.473l-1.389,0.229l-0.847,1.233l0.385,1.621l-1.001,0.535l-0.308,-1.463l-0.852,-1.156l-1.156,1.234l0.922,2.617l-1.189,2.168l-3.339,-1.623c-0.033,-0.014 -0.063,-0.022 -0.099,-0.025c-0.026,0.001 -0.026,0 -0.051,0.003l-3.275,0.547l-0.652,-0.402Z" style="fill:#000;"/><path id="southernAfrica" d="M53.834,33.329l2.094,0l2.397,1.389l-2.424,4.559l-2.546,0.463l-2.129,-5.146l1.833,0c0.099,-0.005 0.176,-0.053 0.224,-0.14l0.551,-1.125Z" style="fill:#000;"/><path id="centralAfrica" d="M51.414,18.683l1.323,0.866l0.213,3.525c0.009,0.062 0.028,0.117 0.074,0.162c0.023,0.023 0.031,0.026 0.058,0.044l1.585,0.843l0.881,2.014l0.011,0.022c0.45,0.713 0.968,1.38 1.452,2.069l-0.342,2.832c-0.002,0.033 -0.004,0.041 0.002,0.073c0.008,0.05 0.032,0.089 0.063,0.128l0.027,0.025l2.865,2.29l-0.971,0.755l-2.534,-1.469c-0.033,-0.016 -0.063,-0.026 -0.1,-0.032c-0.788,-0.041 -1.58,-0.04 -2.369,0c-0.071,0.011 -0.125,0.041 -0.172,0.096c-0.015,0.021 -0.014,0.02 -0.027,0.043l-0.55,1.125l-1.726,0l0.481,-2.215l-1.384,-4.318l-2.038,0.134l-0.505,-2.179l0.447,-1.323l1.193,-1.743c0.013,-0.021 0.013,-0.021 0.024,-0.043c0.318,-0.87 0.549,-1.769 0.824,-2.654l1.195,-1.07Z" style="fill:#000;"/><path id="eastAfrica" d="M53.252,19.78l0.719,-1.006l3.064,0.784l0.154,-0.092l0.51,1.089l-0.003,0.001l2.52,5.772l2.469,-1.157l-0.771,2.699l-2.467,2.237l0.341,2.958l-2.606,-2.083l0.337,-2.789c0.002,-0.052 -0.005,-0.094 -0.025,-0.142l-0.019,-0.032l-1.479,-2.106l-0.906,-2.07c-0.022,-0.042 -0.047,-0.073 -0.083,-0.103l-0.029,-0.018l-1.537,-0.818l-0.189,-3.124Z" style="fill:#000;"/><path id="westAfrica" d="M51.132,18.264l-1.298,1.163c-0.02,0.019 -0.036,0.039 -0.051,0.062c-0.012,0.024 -0.012,0.024 -0.021,0.05l-0.825,2.66l-1.191,1.741c-0.012,0.019 -0.012,0.019 -0.022,0.04c-0.188,0.482 -0.358,0.972 -0.496,1.47c-0.006,0.038 -0.006,0.072 0,0.11l0.503,2.169l-2.16,0.142l-2.626,-2.546l0.465,-4.161l2.546,-3.084l4.932,-0.844l0.244,1.028Z" style="fill:#000;"/></svg>